<svg width="143" height="48" viewBox="0 0 143 48" fill="none" xmlns="http://www.w3.org/2000/svg">
<path d="M67.394 18.8862C66.1983 18.8862 65.262 18.8579 64.5739 18.7959C63.8915 18.7394 63.429 18.666 63.1921 18.5757C62.9552 18.4854 62.8198 18.4064 62.7803 18.3274C62.7014 18.1693 62.6619 17.8081 62.6619 17.238V10.6058H67.1233C69.1988 10.6058 70.8401 10.0357 72.0527 8.90122C73.0285 7.98119 73.5192 6.95955 73.5192 5.8476C73.5192 4.20508 72.8818 2.873 71.6128 1.85136C70.2648 0.773283 68.4205 0.237065 66.0967 0.237065H54.715V0.502352C56.689 0.502352 57.9806 0.609595 58.5897 0.824083C58.7871 0.903104 58.8999 0.982126 58.9394 1.06115C59.0184 1.21919 59.0579 1.5635 59.0579 2.09407V17.238C59.0579 17.8081 59.0184 18.1693 58.9394 18.3274C58.8999 18.4064 58.7646 18.4911 58.5277 18.5757C58.2908 18.666 57.8452 18.7394 57.191 18.7959C56.5367 18.8523 55.7076 18.8862 54.7093 18.8862V19.1797H67.3883V18.8862H67.394ZM62.6675 2.08843C62.6675 1.51834 62.6901 1.14017 62.7409 0.953904C62.7916 0.767639 62.9157 0.643462 63.1075 0.587018C63.3049 0.530574 63.6094 0.496707 64.0212 0.496707H65.4369C66.9484 0.496707 68.0708 0.931326 68.7984 1.79492C69.5259 2.65851 69.8869 3.9285 69.8869 5.5936C69.8869 7.18532 69.6105 8.34243 69.0635 9.07055C68.4148 9.91722 67.2755 10.3349 65.6455 10.3349H62.6675V2.08843ZM123.688 22.4873C124.196 23.3396 124.89 23.9097 125.769 24.2032C126.339 24.3782 126.858 24.4685 127.326 24.4685C128.556 24.4685 129.526 23.9944 130.231 23.0461C130.936 22.0978 131.285 20.8956 131.285 19.445C131.285 19.2305 131.274 18.9934 131.257 18.7394C131.235 18.4854 131.206 18.2596 131.167 18.0621H130.964C131.02 18.508 131.054 18.9257 131.054 19.3208C131.054 20.4497 130.851 21.3471 130.439 22.0075C130.028 22.6679 129.537 23.0009 128.973 23.0009C128.291 23.0009 127.631 22.5607 127.005 21.6801C126.847 21.4431 126.655 20.9746 126.435 20.2747C126.209 19.5691 126.001 18.8862 125.803 18.2201C127.332 17.4356 128.533 16.3913 129.413 15.0818C130.411 13.5748 130.908 11.7855 130.908 9.71402C130.908 6.69991 129.937 4.27846 128.003 2.43838C126.3 0.812794 124.314 0 122.041 0C119.83 0 117.845 0.863594 116.085 2.58514C114.145 4.48166 113.181 6.86359 113.181 9.71966C113.181 12.7168 114.151 15.1326 116.085 16.9727C117.806 18.6152 119.791 19.4393 122.041 19.4393L122.921 19.3208C122.921 20.5795 123.175 21.635 123.688 22.4873ZM117.862 15.5616C117.343 14.0433 117.084 12.1129 117.084 9.76482C117.084 6.59831 117.467 4.22201 118.24 2.63594C119.012 1.0555 120.27 0.259643 122.013 0.259643C123.677 0.259643 124.923 1.06679 125.752 2.68109C126.582 4.29539 126.999 6.64346 126.999 9.73659C126.999 11.6331 126.869 13.1797 126.604 14.3706C126.339 15.5616 125.916 16.5494 125.329 17.334C125.211 17.08 125.093 16.8373 124.98 16.6002C124.861 16.3631 124.743 16.1825 124.63 16.0414C124.297 15.6124 123.965 15.2794 123.632 15.0423C123.181 14.7319 122.684 14.5738 122.137 14.5738C121.923 14.5738 121.714 14.5964 121.522 14.6472C121.325 14.698 121.099 14.7601 120.846 14.8391C120.592 14.9182 120.31 15.1891 120.011 15.6463C119.706 16.1091 119.554 16.6002 119.554 17.1308C119.554 17.4243 119.61 17.7121 119.729 18C119.847 18.2822 120.033 18.5362 120.287 18.7507C119.187 18.1411 118.381 17.08 117.862 15.5616ZM122.554 19.1232C122.391 19.1627 122.188 19.1797 121.951 19.1797C121.816 19.1797 121.607 19.1627 121.336 19.1232C120.829 18.9483 120.445 18.6773 120.191 18.3161C119.937 17.9548 119.808 17.5597 119.808 17.1308C119.808 16.5833 119.971 16.0922 120.304 15.6632C120.637 15.2342 121.049 15.0198 121.539 15.0198C122.109 15.0198 122.532 15.1552 122.814 15.4318C123.096 15.7084 123.237 16.1148 123.237 16.6623C123.237 16.8768 123.226 17.0856 123.209 17.2775C123.186 17.4751 123.152 17.6783 123.09 17.8928L122.887 19.0668C122.837 19.0611 122.724 19.0837 122.554 19.1232ZM71.9399 19.1797H79.3962V18.8862C78.3979 18.8862 77.6252 18.7281 77.0781 18.412C76.531 18.096 76.2546 17.5767 76.2546 16.8485C76.2546 16.3744 76.3731 15.8156 76.6043 15.1665L77.5067 12.5701H83.1638L85.0307 17.7629L85.0871 18.0564C85.0871 18.3895 84.8107 18.6096 84.2636 18.7225C83.7165 18.8297 82.7069 18.8862 81.2405 18.8862V19.1797H92.0696V18.8862C90.6031 18.8862 89.7233 18.8128 89.43 18.666C89.1367 18.5193 88.8434 18.0452 88.5501 17.238L82.2163 0H81.6297L76.672 13.8288C76.029 15.6124 75.4989 16.7921 75.0871 17.3565C74.3426 18.3782 73.2992 18.8862 71.9456 18.8862V19.1797H71.9399ZM80.3381 4.76952L83.0228 12.2484H77.659L80.3381 4.76952ZM104.083 18.9144C103.322 18.9144 102.588 18.9031 101.895 18.8862C101.201 18.8692 100.738 18.8128 100.513 18.7225C100.287 18.6322 100.141 18.5136 100.073 18.3556C100.005 18.1976 99.9714 17.825 99.9714 17.238V9.34149H103.418C104.331 9.34149 105.031 9.52211 105.521 9.88335C106.006 10.2446 106.255 10.9445 106.255 11.9831C106.238 12.1976 106.226 12.4064 106.226 12.5983V13.2135C106.226 15.5221 106.401 17.0913 106.756 17.9153C107.191 18.9313 108.082 19.445 109.441 19.445C110.485 19.445 111.184 19.0724 111.534 18.3274C111.748 17.8758 111.855 17.0743 111.855 15.9172V14.9464H111.618C111.618 16.1035 111.539 17.0066 111.381 17.6613C111.223 18.3161 110.936 18.6435 110.518 18.6435C110.141 18.6435 109.904 18.5136 109.808 18.2596C109.712 18.0056 109.661 17.5936 109.661 17.0292C109.661 15.0931 109.492 13.6482 109.154 12.6886C108.482 10.7695 107.106 9.60677 105.019 9.19473C107.061 8.95767 108.556 8.39887 109.498 7.51834C110.282 6.79022 110.676 5.85889 110.676 4.72436C110.676 3.76482 110.18 2.83349 109.182 1.93039C107.93 0.790216 106.249 0.225776 104.134 0.225776H92.1316V0.491063C94.0493 0.491063 95.2901 0.598307 95.8597 0.812794C96.0741 0.891816 96.2038 0.970837 96.2433 1.04986C96.3222 1.18532 96.3617 1.52963 96.3617 2.08278V17.2267C96.3617 17.7968 96.3222 18.1524 96.2433 18.3048C96.1643 18.4516 96.0289 18.5644 95.8315 18.6435C95.4198 18.8015 94.1903 18.8805 92.1316 18.8805V19.174H104.077V18.9144H104.083ZM99.9714 2.09407C99.9714 1.52399 99.994 1.14017 100.045 0.953904C100.095 0.767639 100.214 0.643462 100.411 0.587018C100.603 0.530574 100.908 0.496707 101.319 0.496707H102.724C104.28 0.496707 105.397 0.835372 106.068 1.51834C106.74 2.20132 107.078 3.36406 107.078 5.02352C107.078 6.52493 106.666 7.58608 105.848 8.21825C105.166 8.74882 104.111 9.01976 102.69 9.01976H99.9714V2.09407ZM83.536 29.0517C82.1486 29.0517 81.1164 29.7686 80.4565 31.1966C80.3606 31.4111 79.994 32.3706 79.368 34.0809L74.557 47.8476H73.5868L69.2496 33.5447L65.544 47.8476H64.5457L58.0878 30.6943C57.7945 29.8871 57.4955 29.413 57.191 29.2662C56.8864 29.1195 56.0629 29.0461 54.7093 29.0461V28.7808H64.7206V29.0461C63.5248 29.0461 62.7014 29.1082 62.2389 29.238C61.7764 29.3678 61.5508 29.6162 61.5508 29.9887C61.5508 30.1863 61.6072 30.4233 61.7256 30.6943L66.3336 43.0273L69.0127 32.8053L68.3866 30.7056C68.1498 29.9153 67.8621 29.4412 67.5293 29.2832C67.1909 29.1251 66.3336 29.0461 64.9518 29.0461V28.7808H75.0138V29.0461C73.8237 29.0461 73.0003 29.1082 72.5434 29.238C72.0866 29.3678 71.8553 29.6331 71.8553 30.0452C71.8553 30.2596 71.8948 30.4741 71.9738 30.6943L75.7583 43.0555L78.9901 33.9003C79.3172 32.9407 79.4864 32.1562 79.4864 31.5466C79.4864 29.8815 78.3133 29.0461 75.9613 29.0461V28.7808H83.536V29.0517ZM139.915 31.2248C138.133 29.5992 136.136 28.7865 133.925 28.7865H122.481V29.0517C124.241 29.0517 125.437 29.1703 126.063 29.4073C126.277 29.4864 126.407 29.5654 126.446 29.6444C126.525 29.8024 126.565 30.1524 126.565 30.7056V45.793C126.565 46.3801 126.525 46.7469 126.446 46.8824C126.407 46.9614 126.271 47.0461 126.034 47.1308C125.798 47.2211 125.369 47.2944 124.743 47.3509C124.117 47.4073 123.361 47.4412 122.481 47.4412V47.7347H133.897C136.424 47.7347 138.544 46.9106 140.265 45.2681C142.086 43.524 142.994 41.2267 142.994 38.365C143 35.4694 141.973 33.0875 139.915 31.2248ZM137.992 45.1722C137.14 46.6849 135.781 47.4412 133.914 47.4412C133.248 47.4412 132.588 47.4356 131.94 47.4243C131.291 47.413 130.868 47.3678 130.671 47.2944C130.473 47.2154 130.344 47.0856 130.27 46.9106C130.203 46.7357 130.169 46.3631 130.169 45.793V30.7056C130.169 30.1185 130.203 29.746 130.27 29.5992C130.338 29.4525 130.479 29.3396 130.682 29.2606C130.891 29.1816 131.24 29.1308 131.742 29.0969C132.244 29.0687 132.966 29.0517 133.908 29.0517C135.696 29.0517 137.05 29.9153 137.975 31.6425C138.838 33.2512 139.272 35.492 139.272 38.3594C139.272 41.3904 138.843 43.6595 137.992 45.1722ZM92.3685 28.555C90.1576 28.555 88.1722 29.4073 86.4125 31.1119C84.478 32.9915 83.5078 35.3678 83.5078 38.2465C83.5078 41.2436 84.478 43.6707 86.4125 45.5334C88.1328 47.1759 90.1181 48 92.3685 48C94.5794 48 96.5648 47.1364 98.3245 45.4149C100.259 43.5127 101.229 41.1251 101.229 38.2465C101.229 35.2493 100.259 32.8335 98.3245 30.9934C96.6042 29.3678 94.6189 28.555 92.3685 28.555ZM96.0571 45.285C95.2055 46.9163 93.9759 47.7347 92.3572 47.7347C90.7159 47.7347 89.4864 46.9163 88.6573 45.285C87.8282 43.6538 87.4165 41.3114 87.4165 38.2634C87.4165 35.1759 87.8282 32.8278 88.6573 31.2248C89.4864 29.6218 90.7216 28.8203 92.3572 28.8203C94.0154 28.8203 95.2562 29.6218 96.0854 31.2248C96.9144 32.8278 97.3318 35.1759 97.3318 38.2634C97.3318 41.3114 96.9032 43.6538 96.0571 45.285ZM112.741 28.555C110.53 28.555 108.544 29.4073 106.785 31.1119C104.85 32.9915 103.88 35.3678 103.88 38.2465C103.88 41.2436 104.85 43.6707 106.785 45.5334C108.505 47.1759 110.49 48 112.741 48C114.952 48 116.937 47.1364 118.697 45.4149C120.637 43.5127 121.601 41.1251 121.601 38.2465C121.601 35.2493 120.631 32.8335 118.697 30.9934C116.976 29.3678 114.991 28.555 112.741 28.555ZM116.424 45.285C115.578 46.9163 114.342 47.7347 112.724 47.7347C111.082 47.7347 109.853 46.9163 109.024 45.285C108.195 43.6538 107.777 41.3114 107.777 38.2634C107.777 35.1759 108.189 32.8278 109.024 31.2248C109.853 29.6218 111.088 28.8203 112.724 28.8203C114.382 28.8203 115.628 29.6218 116.458 31.2248C117.287 32.8278 117.704 35.1759 117.704 38.2634C117.698 41.3114 117.275 43.6538 116.424 45.285ZM19.0975 26.3932L22.7354 22.7526L21.9514 21.968L19.0975 24.8297V20.0489V19.27V19.1119V4.88805L14.5008 9.48824V14.5118L11.9909 12L4.8618 19.1345V19.27V20.7827V24.8297L2.01917 21.9849L1.23519 22.7695L4.8618 26.3989V31.9586L0 27.0875V28.651L4.8618 33.5165V39.0762L0 34.2107V35.7799L4.8618 40.6397V46.1938L0 41.334V42.9031L4.8618 47.7686V48H5.96726V47.7686L11.4269 42.3048V47.1985V47.8589V48H12.5324V47.8589V47.1985V42.3048L17.992 47.7686V48H19.0975V47.7686L23.9819 42.8805V41.3114L19.0975 46.1994V40.6453L23.9819 35.7573V34.1938L19.0975 39.0818V33.5221L23.9819 28.6341V27.0706L19.0975 31.9586V26.3932ZM11.4269 40.7357L5.96726 46.1994V40.6453L11.4269 35.1816V40.7357ZM11.4269 33.6124L5.96726 39.0762V33.5165L11.4269 28.0527V33.6124ZM11.4269 26.4892L5.96726 31.953V26.3932L11.4269 20.9294V26.4892ZM11.4269 19.3659L5.96726 24.8297V19.27L11.4269 13.8062V19.3659ZM17.992 46.1994L12.5324 40.7357V35.1759L17.992 40.6397V46.1994ZM17.992 39.0762L12.5324 33.6124V28.0527L17.992 33.5165V39.0762ZM17.992 31.953L12.5324 26.4892V20.9351L17.992 26.3989V31.953ZM17.992 24.8297L12.5324 19.3659V13.8119L17.992 19.2756V24.8297ZM24.0044 0.0225776L28.7534 4.77516V48H24.0044V0.0225776ZM33.6378 9.66322L38.257 14.286V48H33.6378V9.66322ZM43.1414 19.174L47.7607 23.7968V48H43.1414V19.174Z" fill="#E1E0D4"/>
</svg>
