<svg width="240" height="24" viewBox="0 0 240 24" fill="none" xmlns="http://www.w3.org/2000/svg">
<path d="M138.45 17.5929C140.186 17.0939 141.892 16.6044 143.594 16.1165C144.467 18.5323 146.556 19.3656 148.915 18.2978C149.542 18.0143 149.992 17.566 149.976 16.8674C149.96 16.1482 149.452 15.6904 148.793 15.5573C147.557 15.3086 146.304 15.1518 145.057 14.9601C143.347 14.6987 141.68 14.29 140.351 13.1003C137.777 10.7954 137.785 6.29328 140.34 3.7048C143.421 0.584058 149.43 0.354359 152.747 3.22956C153.75 4.09767 154.318 5.00379 154.76 6.48179C153.095 7.13762 151.422 7.79504 149.748 8.45404C148.934 6.39308 147.093 5.65963 145.094 6.54516C144.307 6.89367 143.899 7.50672 143.952 8.25919C144.007 9.06393 144.581 9.4267 145.238 9.56293C146.497 9.82431 147.788 9.93996 149.048 10.2013C149.943 10.3883 150.835 10.6528 151.684 10.9934C156.04 12.7391 156.214 17.8099 154.139 20.5236C150.904 24.7532 143.578 25.0257 140.058 21.0305C139.206 20.0657 138.675 18.9442 138.45 17.5929Z" fill="white"/>
<path d="M206.743 7.91296C206.743 5.7332 206.743 3.62154 206.743 1.44336C208.365 1.44336 209.954 1.44336 211.6 1.44336C211.6 8.80008 211.6 16.1536 211.6 23.5705C210.005 23.5705 208.413 23.5705 206.765 23.5705C206.765 23.081 206.765 22.6153 206.765 22.1575C206.667 22.1369 206.602 22.1021 206.581 22.1211C203.034 25.0913 197.651 24.0838 195.347 19.927C193.653 16.8728 193.549 13.6523 195.028 10.4935C197.059 6.15774 202.748 4.88727 206.505 7.84326C206.538 7.86861 206.594 7.87019 206.743 7.91296ZM202.841 19.0621C205.007 19.0526 206.762 17.1833 206.733 14.918C206.703 12.6464 204.918 10.8072 202.765 10.8294C200.596 10.8515 199.015 12.6099 199.03 14.9877C199.041 17.3544 200.647 19.0716 202.841 19.0621Z" fill="white"/>
<path d="M45.5241 7.21018C44.0112 8.13373 42.5301 9.03827 40.9887 9.97766C40.2172 8.34917 39.0275 7.21177 37.3198 6.69217C35.9179 6.26604 34.5112 6.29772 33.1346 6.8094C30.5904 7.75354 29.1536 10.2533 29.3865 13.2948C29.6051 16.1273 31.3936 18.2849 34.1199 18.7918C36.4058 19.2163 39.3792 18.7348 41.0758 15.153C42.4889 16.2255 43.8892 17.29 45.2849 18.3498C43.4679 22.0488 38.9182 24.6563 33.6209 23.8547C28.0226 23.0072 24.2887 18.7126 24.0147 13.203C23.7406 7.69968 27.3271 2.90134 32.5199 1.61977C37.7412 0.328703 43.3649 2.71124 45.5241 7.21018Z" fill="white"/>
<path d="M172.629 23.5909C171.017 23.5909 169.444 23.5909 167.78 23.5909C167.765 23.2947 167.736 23.0175 167.736 22.7402C167.733 20.1011 167.739 17.4603 167.727 14.8212C167.725 14.3222 167.682 13.82 167.606 13.3273C167.302 11.3361 165.482 10.4125 163.698 11.3487C162.407 12.0252 161.803 13.1277 161.802 14.5709C161.799 17.2639 161.8 19.9553 161.799 22.6484C161.799 22.9351 161.799 23.2234 161.799 23.5703C160.036 23.5703 158.337 23.5703 156.587 23.5703C156.587 15.7415 156.587 7.94126 156.587 0C157.534 0.251877 158.455 0.495835 159.375 0.741376C159.426 0.754049 159.47 0.787315 159.519 0.80474C160.186 1.02494 161.114 1.05662 161.449 1.5176C161.791 1.99126 161.564 2.88629 161.567 3.59599C161.575 5.06289 161.569 6.5298 161.569 8.1678C163.245 6.55832 165.151 6.18129 167.216 6.33812C170.426 6.58208 171.999 8.58284 172.528 11.4755C172.566 11.683 172.623 11.8921 172.623 12.1012C172.631 15.9 172.629 19.6971 172.629 23.5909Z" fill="white"/>
<path d="M123.57 8.08514C123.597 7.5497 123.619 7.08872 123.645 6.58496C125.287 6.58496 126.884 6.58496 128.537 6.58496C128.537 12.2435 128.537 17.8751 128.537 23.6207C126.989 23.6207 125.47 23.6302 123.952 23.6017C123.833 23.6001 123.645 23.3483 123.621 23.1914C123.569 22.8667 123.605 22.5293 123.605 22.0382C121.322 24.1704 118.774 24.2259 116.198 23.2976C113.014 22.1491 111.512 19.5749 111.079 16.3638C110.759 13.9892 111.073 11.6843 112.413 9.60274C114.387 6.54061 119.151 5.26538 122.143 7.03168C122.613 7.31208 123.029 7.68277 123.57 8.08514ZM123.602 14.8922C123.548 12.5651 121.818 10.7893 119.643 10.8304C117.443 10.8716 115.911 12.6395 115.951 15.0918C115.989 17.4299 117.655 19.1281 119.849 19.0632C121.991 18.9998 123.654 17.1496 123.602 14.8922Z" fill="white"/>
<path d="M77.1674 23.649C75.5532 23.649 73.9785 23.649 72.3152 23.649C72.2899 23.1738 72.2645 22.7175 72.2407 22.2708C72.152 22.2581 72.0807 22.228 72.0633 22.2471C69.5556 24.9575 64.0524 24.1908 61.6302 21.1271C59.0307 17.8368 58.8992 12.4476 61.4179 9.16844C63.425 6.55462 67.7703 5.50434 70.5695 6.99026C71.1382 7.29283 71.634 7.73322 72.2265 8.15618C72.2503 7.66985 72.274 7.20887 72.3025 6.63541C73.1184 6.63541 73.9263 6.63541 74.7342 6.63541C75.5247 6.63541 76.3151 6.63541 77.1674 6.63541C77.1674 12.2987 77.1674 17.9303 77.1674 23.649ZM68.3058 10.9173C66.1292 10.9268 64.5609 12.6599 64.5624 15.0535C64.564 17.3933 66.1894 19.1374 68.3723 19.1437C70.5204 19.1485 72.2883 17.2665 72.2661 14.9965C72.2423 12.7122 70.4919 10.9078 68.3058 10.9173Z" fill="white"/>
<path d="M187.254 8.18039C187.254 7.55149 187.254 7.08734 187.254 6.582C188.908 6.582 190.504 6.582 192.147 6.582C192.147 12.2564 192.147 17.8911 192.147 23.5782C190.517 23.5782 188.924 23.5782 187.241 23.5782C187.241 23.0855 187.241 22.6309 187.241 22.1049C184.285 24.4843 181.277 24.3069 178.291 22.5279C176.271 21.3239 175.26 19.3327 174.799 17.0896C174.326 14.7831 174.551 12.5288 175.58 10.3792C177.421 6.53447 182.284 5.55706 185.033 6.68655C185.419 6.84496 185.796 7.04615 186.145 7.27743C186.49 7.50713 186.793 7.8002 187.254 8.18039ZM187.24 15.0238C187.263 12.7316 185.551 10.8623 183.4 10.8291C181.199 10.7958 179.531 12.5764 179.539 14.9526C179.547 17.3098 181.158 19.0539 183.335 19.0618C185.481 19.0713 187.217 17.2749 187.24 15.0238Z" fill="white"/>
<path d="M230.894 16.9997C226.851 16.9997 222.848 16.9997 218.834 16.9997C219.147 18.7454 221.609 19.6673 223.014 19.3173C223.662 19.1557 224.258 18.7882 224.885 18.5363C225.102 18.4492 225.383 18.3193 225.568 18.3874C226.924 18.8784 228.264 19.4155 229.612 19.9398C228.342 22.6376 223.686 24.819 219.22 23.2998C214.295 21.6253 212.622 16.7716 213.886 12.2631C215.117 7.87189 219.748 5.43707 224.549 6.54597C229.24 7.62951 231.835 11.8465 230.894 16.9997ZM225.593 13.0631C225.2 11.4504 223.944 10.6124 222.105 10.652C220.514 10.6853 219.299 11.6168 218.997 13.0631C221.181 13.0631 223.356 13.0631 225.593 13.0631Z" fill="white"/>
<path d="M91.3194 1.79384C90.8204 2.77759 90.3436 3.76926 89.805 4.72608C89.7163 4.8829 89.363 4.93676 89.1238 4.95577C88.5044 5.00647 87.8644 4.93043 87.2641 5.05557C86.4276 5.22983 86.0918 5.86348 86.0966 6.77594C87.2451 6.77594 88.3682 6.77594 89.5468 6.77594C89.5468 8.23335 89.5468 9.6163 89.5468 11.1133C88.4062 11.1133 87.2625 11.1133 86.0427 11.1133C86.0427 11.5125 86.0427 11.7977 86.0427 12.0828C86.0427 15.6724 86.0284 19.2637 86.0554 22.8533C86.0601 23.5076 85.8732 23.7214 85.2094 23.6977C83.8693 23.6486 82.5259 23.6834 81.0844 23.6834C81.0844 19.487 81.0844 15.3604 81.0844 11.145C80.2052 11.145 79.4242 11.145 78.583 11.145C78.583 9.67491 78.583 8.29354 78.583 6.80921C79.4147 6.80921 80.2416 6.80921 81.1065 6.80921C81.1461 6.21991 81.1556 5.7225 81.2174 5.22983C81.4566 3.30828 82.8412 1.88572 84.9813 1.34237C86.8348 0.873462 89.6355 1.06514 91.3194 1.79384Z" fill="white"/>
<path d="M97.948 3.13281C97.948 4.37477 97.948 5.52644 97.948 6.7684C99.1346 6.7684 100.255 6.7684 101.504 6.7684C101.21 8.25749 100.937 9.63251 100.655 11.0519C99.7698 11.0519 98.9318 11.0519 97.9623 11.0519C97.9623 11.4574 97.9623 11.8139 97.9623 12.1687C97.9623 13.9635 97.9607 15.7584 97.9623 17.5532C97.9639 19.0502 98.6055 19.7187 100.115 19.7583C100.587 19.771 101.061 19.7092 101.658 19.6743C101.658 20.9797 101.658 22.2834 101.658 23.7107C99.6209 24.0323 97.4855 24.2588 95.4752 23.1658C93.8673 22.2913 93.1782 20.769 93.0895 19.0359C92.9707 16.7183 93.0071 14.3944 92.9786 12.0721C92.9754 11.7632 92.9786 11.4543 92.9786 11.0757C92.2119 11.0757 91.5355 11.0757 90.8115 11.0757C90.8115 9.61984 90.8115 8.23689 90.8115 6.7779C91.5418 6.7779 92.2182 6.7779 92.9834 6.7779C92.9834 5.8401 92.9628 4.97516 92.9992 4.11339C93.0071 3.91221 93.1956 3.56053 93.3303 3.54627C94.8416 3.37994 96.3576 3.26588 97.948 3.13281Z" fill="white"/>
<path d="M47.2085 6.66391C48.7768 6.66391 50.2199 6.66391 51.6599 6.66391C51.7375 6.99499 51.8072 7.29915 51.896 7.68092C54.1708 5.77363 56.5692 6.06035 59.118 7.1043C58.5525 8.48091 58.0075 9.80683 57.4911 11.0662C56.5153 11.0662 55.6092 10.9379 54.7537 11.0931C53.0571 11.4005 52.1716 12.5442 52.1605 14.2709C52.1415 17.0923 52.1558 19.9152 52.1526 22.7365C52.1526 23.0201 52.1288 23.3021 52.1114 23.6791C50.5605 23.6791 49.0651 23.6933 47.5713 23.6537C47.4445 23.6506 47.2307 23.3037 47.2228 23.1104C47.1847 22.2423 47.2085 21.371 47.2085 20.4997C47.2085 16.2273 47.2085 11.9549 47.2085 7.68092C47.2085 7.36726 47.2085 7.05361 47.2085 6.66391Z" fill="white"/>
<path d="M4 0H16V6H0L4 0Z" fill="white"/>
<path d="M4 9H16V15H0L4 9Z" fill="white"/>
<path d="M4 18H16V24H0L4 18Z" fill="white"/>
<circle cx="237.5" cy="21" r="2.5" fill="white"/>
</svg>
