<svg viewBox="0 0 108 64" fill="none" xmlns="http://www.w3.org/2000/svg">
<path d="M108 60.7804L107.733 63.7349H92.8109V39.6449H107.556V42.5993H96.1891V50.0612H107.136V53.0156H96.1891V60.7804H108ZM90.2709 51.5762C90.2709 54.0635 89.7375 56.2225 88.6834 58.0406C87.6293 59.8588 86.1181 61.2602 84.1623 62.245C82.2065 63.2298 79.8824 63.7222 77.2027 63.7222H69.4939V39.6449H76.1105C85.5593 39.6449 90.2709 43.622 90.2709 51.5762ZM86.7658 51.753C86.7658 48.6976 85.9403 46.4249 84.2766 44.9351C82.6129 43.4453 80.0729 42.7003 76.6312 42.7003H72.9483V60.6794H77.0757C80.2634 60.6794 82.6764 59.9219 84.3147 58.4068C85.9403 56.8917 86.7658 54.6696 86.7658 51.753ZM56.8321 39.6449L66.6237 63.7222H63.1185L60.769 57.725H49.682L47.2309 63.7222H43.7131L53.9111 39.6449H56.8321ZM59.6388 54.8084L55.3335 43.8493L50.8631 54.8084H59.6388ZM14.262 51.753C13.1698 51.2732 11.8744 50.8692 10.3758 50.5283C8.48354 50.1243 7.11195 49.6193 6.24835 49.0132C5.38476 48.4198 4.95296 47.4981 4.95296 46.2482C4.95296 45.0487 5.37206 44.0765 6.21025 43.3443C7.04845 42.612 8.16604 42.2458 9.55033 42.2458C12.2554 42.2458 13.8683 43.5968 14.389 46.3113L17.4243 45.8063C17.1703 43.7735 16.3575 42.1827 14.9859 41.0211C13.6143 39.8722 11.8363 39.2914 9.65193 39.2914C8.07714 39.2914 6.68015 39.5944 5.44826 40.2131C4.21637 40.8191 3.25118 41.665 2.55268 42.7382C1.84149 43.8114 1.49859 45.0361 1.49859 46.4123C1.49859 47.9527 1.80339 49.1647 2.42568 50.0612C3.03528 50.9576 3.91157 51.652 5.02916 52.1444C6.15945 52.6368 7.49294 53.0661 9.04233 53.4322C10.8203 53.8615 12.1284 54.3287 12.9666 54.8337C13.8048 55.3387 14.2239 56.1468 14.2239 57.2578C14.2239 58.432 13.7794 59.3537 12.9031 60.0229C12.0268 60.6921 10.833 61.0203 9.30903 61.0203C7.46754 61.0203 6.05786 60.6289 5.09266 59.8335C4.12747 59.0381 3.50517 57.8007 3.23848 56.1089L0 56.5761C0.520696 61.5254 3.55597 64 9.10583 64C10.7949 64 12.2681 63.7096 13.5635 63.1288C14.8462 62.548 15.8495 61.7526 16.5861 60.7173C17.31 59.682 17.6783 58.4952 17.6783 57.1442C17.6783 55.6922 17.3862 54.5559 16.7893 53.7226C16.1924 52.8893 15.3542 52.2328 14.262 51.753ZM37.4901 50.0233H24.8664V39.6449H21.4247V63.7222H24.8664V53.0408H37.4901V63.7222H40.9699V39.6449H37.4901V50.0233ZM95.4525 29.1655H96.5066V5.95936H104.393L104.457 5.07556H87.4007V5.95936H95.4525V29.1655ZM71.2592 15.6686H82.1811V14.7848H71.2592V3.92661H82.2827V3.04281H70.2432V27.1201H71.2719V15.6686H71.2592ZM45.9229 24.0773H44.8307L54.6604 0H55.651L65.0616 24.0773H63.9694L61.1754 16.8175H48.8565L45.9229 24.0773ZM49.2248 15.9085H60.7944L55.1684 1.28783L49.2248 15.9085ZM25.0823 27.0318H24.0536V2.95443H30.2258C32.6769 2.95443 34.5564 3.48471 35.8391 4.57053C37.1218 5.64372 37.7695 7.09568 37.7695 8.92642C37.7695 10.8203 37.1091 12.348 35.7756 13.4843C34.4421 14.6206 32.6007 15.2014 30.2385 15.2014H28.2954C28.6637 15.3403 28.9939 15.5802 29.3241 15.9085C29.6416 16.2494 30.0099 16.7039 30.4163 17.2973L34.6834 23.5344C35.2295 24.3046 35.674 24.8854 36.0296 25.2768C36.3852 25.6682 36.7408 25.9333 37.1091 26.0722C37.4774 26.2111 37.9346 26.2742 38.468 26.2742C38.7855 26.2742 39.0776 26.2237 39.3443 26.1227C39.611 26.0217 39.8523 25.9081 40.0809 25.8071L40.3222 26.5899C40.0555 26.7919 39.7507 26.9308 39.4332 27.0191C39.1157 27.0949 38.7601 27.1328 38.3791 27.1328C37.6044 27.1328 36.9059 26.956 36.2582 26.6025C35.6232 26.249 34.9247 25.5419 34.1754 24.4561L28.8161 16.7165C28.5875 16.3756 28.2319 16.0347 27.762 15.6938C27.2794 15.3529 26.6825 15.1888 25.9586 15.1888H25.1077V27.0318H25.0823ZM25.0823 14.3176H29.9591C32.1181 14.3176 33.7817 13.8631 34.9628 12.9667C36.1312 12.0576 36.7154 10.7572 36.7154 9.0653C36.7154 7.4997 36.2074 6.24975 35.1787 5.30282C34.15 4.35589 32.4737 3.87611 30.1242 3.87611H25.0696V14.3176H25.0823ZM5.81656 2.57566C7.27705 1.57822 8.96613 1.08582 10.8457 1.08582C12.5729 1.08582 14.008 1.42671 15.151 2.1085C16.294 2.79029 17.2465 3.78773 18.0212 5.12606L18.8721 4.41902C18.0974 2.99231 17.0179 1.90649 15.6336 1.16157C14.2493 0.41665 12.6872 0.0378773 10.96 0.0378773C8.80103 0.0378773 6.89605 0.580785 5.25776 1.6666C3.61947 2.75242 2.33678 4.24226 1.43509 6.16137C0.520696 8.06786 0.0761994 10.29 0.0761994 12.8278C0.0761994 15.2898 0.495296 17.4109 1.32079 19.1912C2.14628 20.9714 3.34008 22.335 4.86406 23.2819C6.40075 24.2288 8.22954 24.7086 10.3377 24.7086C12.2681 24.7086 13.9699 24.292 15.4177 23.4713C16.8782 22.6506 18.0085 21.4638 18.834 19.9235L17.945 19.3174C17.2211 20.6936 16.2305 21.7668 14.9732 22.5244C13.7159 23.2819 12.1538 23.6607 10.2615 23.6607C7.39135 23.6607 5.15616 22.7138 3.55597 20.8325C1.95579 18.9513 1.15569 16.2999 1.15569 12.9162C1.15569 10.593 1.56209 8.53502 2.38758 6.75478C3.20038 4.96193 4.34337 3.57309 5.81656 2.57566ZM79.1204 35.2764H60.2865L61.8993 39.304H60.2229L58.6482 35.2764H51.3457L49.7074 39.304H48.0056L49.6947 35.2764H30.7719V33.837H50.2789L54.3556 24.09H55.8034L59.715 33.837H79.1204V35.2764ZM58.0767 33.837L55.0541 26.1227L51.9045 33.837H58.0767Z" fill="currentColor"/>
</svg>
